<svg id="Шар_1" data-name="Шар 1" xmlns="http://www.w3.org/2000/svg" xmlns:xlink="http://www.w3.org/1999/xlink" viewBox="0 0 218.22 206.14"><defs><style>.cls-1{fill-opacity:0.1;fill:url(#Градієнт_без_назви_3);}.cls-2{fill:none;stroke-width:2px;stroke:url(#Градієнт_без_назви_3-2);}.cls-3{fill:#753fff;}.cls-4{fill:#fff;}.cls-5{fill:#bf4aff;}</style><linearGradient id="Градієнт_без_назви_3" x1="8.18" y1="2457.07" x2="210.03" y2="2457.07" gradientTransform="translate(0 -2354)" gradientUnits="userSpaceOnUse"><stop offset="0" stop-color="#492fe7"/><stop offset="1" stop-color="#f715ed" stop-opacity="0.92"/></linearGradient><linearGradient id="Градієнт_без_назви_3-2" x1="17.83" y1="2457.07" x2="216.49" y2="2457.07" xlink:href="#Градієнт_без_назви_3"/></defs><ellipse class="cls-1" cx="109.11" cy="103.07" rx="109.11" ry="103.07"/><ellipse class="cls-2" cx="109.11" cy="103.07" rx="106.38" ry="100.49"/><path class="cls-3" d="M109.65,42c-.16.57-.38,1.14-.62,1.76a2.48,2.48,0,0,0-2.39-2.58h-.34a11.7,11.7,0,0,1-.17,1.86,3.46,3.46,0,0,0-3.68-.44,5.18,5.18,0,0,1,.36,1.83A18.71,18.71,0,0,1,98,55.14a76,76,0,0,0-19.53,17,73.3,73.3,0,0,0-13,21.64,20.64,20.64,0,0,1-10.36,7.35,7,7,0,0,1-1.94,0,3,3,0,0,0,1.39,3.35,9.34,9.34,0,0,1-1.88.59,2.51,2.51,0,0,0,2.79,2.13,2.57,2.57,0,0,0,.4-.07c-.57.36-1.12.7-1.66,1,1.25,1.24,3.85.82,6.79-1.31a18,18,0,0,0,2.46-2.14,15.84,15.84,0,0,0,.49,4.38,39,39,0,0,1,8-14.41c6.43-7.73,14.29-12.47,19.77-12.55-1.17-5.15,2-13.37,8.4-21.07a41.59,41.59,0,0,1,13.21-10.77,20,20,0,0,0-4.81.56,16.29,16.29,0,0,0,1.31-2.29C111.37,45.3,111.21,42.83,109.65,42Z"/><path class="cls-4" d="M109.11,107.42a4.36,4.36,0,1,0-4.61-4.35h0A4.48,4.48,0,0,0,109.11,107.42Z"/><path class="cls-5" d="M165.08,96.94c-.55.28-1.12.59-1.69,1a2.73,2.73,0,0,1,3.29,1.89,1.91,1.91,0,0,1,.06.33,8.13,8.13,0,0,0-1.91.54,3.21,3.21,0,0,1,1.56,3.37,6.22,6.22,0,0,0-2,0,19.38,19.38,0,0,0-10.26,6.78,68.8,68.8,0,0,1-12.71,21.85,73,73,0,0,1-19.58,16.8,18.49,18.49,0,0,0-5,11.34,6.2,6.2,0,0,0,.41,1.85,3.6,3.6,0,0,1-3.79-.54,9.84,9.84,0,0,0,0,1.88,2.68,2.68,0,0,1-3-2.28,2.64,2.64,0,0,1,0-.29,17.17,17.17,0,0,0-.6,1.75c-1.63-.9-1.88-3.43-.41-6.68a17.65,17.65,0,0,1,1.61-2.75,22.86,22.86,0,0,1-4.74.44,40.17,40.17,0,0,0,13.12-10.57c6.46-7.73,9.46-16.13,8.18-21.33,5.65,0,13.64-4.62,20.1-12.32a36.86,36.86,0,0,0,7.91-14.71,16.69,16.69,0,0,1,.69,4.66,18.57,18.57,0,0,1,2.1-1.73C161.07,96,163.66,95.65,165.08,96.94Z"/></svg>