<svg id="Шар_1" data-name="Шар 1" xmlns="http://www.w3.org/2000/svg" xmlns:xlink="http://www.w3.org/1999/xlink" viewBox="0 0 80 80"><defs><style>.cls-1{fill-opacity:0.1;fill:url(#Градієнт_без_назви);}.cls-2{fill:none;stroke-width:2px;stroke:url(#Градієнт_без_назви_2);}.cls-3{fill:#fff;}</style><linearGradient id="Градієнт_без_назви" x1="3" y1="42" x2="77" y2="42" gradientTransform="matrix(1, 0, 0, -1, 0, 82)" gradientUnits="userSpaceOnUse"><stop offset="0" stop-color="#492fe7"/><stop offset="1" stop-color="#f715ed" stop-opacity="0.92"/></linearGradient><linearGradient id="Градієнт_без_назви_2" x1="6" x2="80" xlink:href="#Градієнт_без_назви"/></defs><circle class="cls-1" cx="40" cy="40" r="40"/><circle class="cls-2" cx="40" cy="40" r="39"/><path class="cls-3" d="M40.2,16.29c-.06.22-.14.44-.23.68a.94.94,0,0,0-1-1,4.76,4.76,0,0,1-.06.72,1.22,1.22,0,0,0-1.35-.17,2.14,2.14,0,0,1,.13.71,7.45,7.45,0,0,1-1.76,4.17A28.5,28.5,0,0,0,28.77,28,28.75,28.75,0,0,0,24,36.4a7.61,7.61,0,0,1-3.8,2.85,2.21,2.21,0,0,1-.71,0A1.17,1.17,0,0,0,20,40.55a3.28,3.28,0,0,1-.69.23.93.93,0,0,0,1.17.8c-.21.14-.41.27-.61.38.46.48,1.41.32,2.49-.51a6.37,6.37,0,0,0,.9-.83,6.52,6.52,0,0,0,.18,1.7,15.47,15.47,0,0,1,2.94-5.59c2.36-3,5.24-4.84,7.25-4.87-.43-2,.72-5.19,3.08-8.18a15.44,15.44,0,0,1,4.84-4.18,7,7,0,0,0-1.76.22,7,7,0,0,0,.48-.89C40.83,17.58,40.77,16.62,40.2,16.29Z"/><path class="cls-3" d="M40,41.69A1.69,1.69,0,1,0,38.31,40,1.69,1.69,0,0,0,40,41.69Z"/><path class="cls-3" d="M60.52,37.62c-.2.11-.41.23-.62.37a1,1,0,0,1,1.23.86,3.05,3.05,0,0,0-.7.21A1.28,1.28,0,0,1,61,40.37a2.08,2.08,0,0,0-.74,0A7.08,7.08,0,0,0,56.5,43a27.13,27.13,0,0,1-4.66,8.48A27.19,27.19,0,0,1,44.66,58a7.38,7.38,0,0,0-1.85,4.4,2.55,2.55,0,0,0,.15.72,1.27,1.27,0,0,1-1.39-.21,3.84,3.84,0,0,0,0,.73,1,1,0,0,1-1.11-1,6.69,6.69,0,0,0-.22.68c-.6-.35-.69-1.33-.15-2.59a6.58,6.58,0,0,1,.59-1.07,7.65,7.65,0,0,1-1.74.17,14.85,14.85,0,0,0,4.81-4.1c2.37-3,3.47-6.26,3-8.28,2.07,0,5-1.79,7.37-4.78a14.64,14.64,0,0,0,2.9-5.71,6.88,6.88,0,0,1,.25,1.81,7,7,0,0,1,.77-.67C59.05,37.25,60,37.12,60.52,37.62Z"/></svg>